<svg width="188" height="188" viewBox="0 0 188 188" fill="none" xmlns="http://www.w3.org/2000/svg">
<rect x="25" y="35" width="138" height="118" fill="#4C2528"/>
<path fill-rule="evenodd" clip-rule="evenodd" d="M94 188C145.915 188 188 145.915 188 94C188 42.0852 145.915 0 94 0C42.0852 0 0 42.0852 0 94C0 145.915 42.0852 188 94 188ZM161.932 41.456V43.816C160.201 44.4453 158.392 45.822 156.504 47.946C154.616 49.9913 152.964 53.2953 151.548 57.858L130.78 125.236C130.151 125.157 129.482 125.118 128.774 125.118H126.65H124.526C123.818 125.118 123.149 125.157 122.52 125.236L105.161 72.6619L93.3222 108.328L104.098 136.088C105.199 138.92 106.419 140.887 107.756 141.988C109.172 143.011 110.431 143.561 111.532 143.64V146C109.172 145.843 106.379 145.764 103.154 145.764C100.007 145.685 96.8213 145.646 93.596 145.646C89.9773 145.646 86.5553 145.685 83.33 145.764C80.1047 145.764 77.548 145.843 75.66 146V143.64C79.672 143.483 82.1893 142.814 83.212 141.634C84.3133 140.375 84.0773 137.74 82.504 133.728L75.4291 114.376H49.7572L46.632 122.518C44.9013 126.845 43.8393 130.385 43.446 133.138C43.1313 135.891 43.328 138.015 44.036 139.51C44.8227 141.005 46.042 142.067 47.694 142.696C49.4247 143.247 51.47 143.561 53.83 143.64V146C51.234 145.843 48.756 145.764 46.396 145.764C44.036 145.685 41.6367 145.646 39.198 145.646C37.4673 145.646 35.8153 145.685 34.242 145.764C32.7473 145.764 31.41 145.843 30.23 146V143.64C31.882 143.325 33.5733 142.263 35.304 140.454C37.0347 138.645 38.726 135.577 40.378 131.25L61.87 76.1061L53.018 51.368C51.9953 48.4573 50.776 46.4907 49.36 45.468C48.0227 44.4453 46.764 43.8947 45.584 43.816V41.456C47.944 41.5347 50.7367 41.6133 53.962 41.692C57.1873 41.7707 60.2553 41.81 63.166 41.81C66.3127 41.81 69.1053 41.7707 71.544 41.692C74.0613 41.6133 76.1067 41.5347 77.68 41.456V43.816C76.1067 44.052 75.0053 44.642 74.376 45.586C73.7467 46.4513 73.4713 47.6313 73.55 49.126C73.7073 50.542 74.0613 52.076 74.612 53.728L91.797 103.598L103.798 68.5338L97.74 50.188C96.9533 47.7493 95.97 46.0973 94.79 45.232C93.6887 44.3667 92.5087 43.8947 91.25 43.816V41.456C93.4527 41.5347 96.0487 41.6133 99.038 41.692C102.106 41.7707 105.135 41.81 108.124 41.81C111.585 41.81 114.811 41.7707 117.8 41.692C120.868 41.6133 123.307 41.5347 125.116 41.456V43.816C122.756 43.8947 120.868 44.17 119.452 44.642C118.115 45.114 117.328 46.0187 117.092 47.356C116.935 48.6933 117.328 50.8173 118.272 53.728L134.421 103.084L145.648 67.416C147.536 61.4373 148.441 56.7567 148.362 53.374C148.283 49.9913 147.379 47.592 145.648 46.176C143.917 44.6813 141.439 43.8947 138.214 43.816V41.456C140.889 41.5347 143.406 41.6133 145.766 41.692C148.126 41.7707 150.486 41.81 152.846 41.81C154.655 41.81 156.307 41.7707 157.802 41.692C159.375 41.6133 160.752 41.5347 161.932 41.456ZM50.6631 112.016L62.9057 80.1208L74.5663 112.016H50.6631Z" fill="#E0D6CC"/>
</svg>
